<svg width="19" height="18" viewBox="0 0 19 18" fill="none" xmlns="http://www.w3.org/2000/svg">
<path d="M13.0562 11.4062L12.6007 11.859C12.6007 11.859 11.5181 12.9355 8.5631 9.9972C5.60812 7.05901 6.6907 5.98257 6.6907 5.98257L6.9775 5.69738C7.6841 4.99484 7.7507 3.86691 7.1342 3.04348L5.87326 1.35908C5.11028 0.339917 3.63596 0.205287 2.76145 1.07483L1.19185 2.63552C0.758228 3.06668 0.467648 3.62559 0.502888 4.24561C0.593038 5.83182 1.31071 9.2447 5.31536 13.2266C9.5621 17.4492 13.5468 17.617 15.1763 17.4651C15.6917 17.4171 16.1399 17.1546 16.5011 16.7954L17.9217 15.383C18.8806 14.4295 18.6102 12.7949 17.3833 12.128L15.4728 11.0894C14.6672 10.6515 13.6858 10.7801 13.0562 11.4062Z" fill="white"/>
</svg>
