<svg width="90" height="91" viewBox="0 0 90 91" fill="none" xmlns="http://www.w3.org/2000/svg">
<circle cx="37" cy="42.5" r="22" fill="white"/>
<path d="M7.5 39.875C7.5 24.342 20.092 11.75 35.625 11.75C51.1579 11.75 63.75 24.342 63.75 39.875C63.75 55.4079 51.1579 68 35.625 68C31.501 68 27.5779 67.1105 24.0429 65.5111C19.3243 66.6001 14.2434 67.5369 11.906 67.9531C9.32753 68.4121 7.08165 66.1486 7.58152 63.5649C8.02327 61.2819 9.00465 56.375 10.1376 51.7809C8.44474 48.1625 7.5 44.1256 7.5 39.875ZM30.54 24.1521C28.8842 25.0367 27.5784 26.4129 26.5896 28.2366C25.8493 29.6022 26.3561 31.3093 27.7216 32.0497C29.0871 32.79 30.7943 32.2832 31.5346 30.9176C32.0834 29.9055 32.6526 29.4009 33.1905 29.1135C33.7566 28.8111 34.5176 28.6278 35.6248 28.6277C36.4632 28.6277 37.4518 28.9244 38.178 29.5195C38.8174 30.0434 39.3746 30.8861 39.3746 32.375C39.3746 33.1056 39.093 33.4426 37.1681 34.9552C35.4793 36.2823 32.8121 38.435 32.8121 42.6875C32.8121 44.2407 34.0713 45.5 35.6246 45.5C37.1779 45.5 38.4371 44.2407 38.4371 42.6875C38.4371 41.2981 39.0514 40.6295 40.6436 39.3781C40.7415 39.3012 40.848 39.2195 40.9609 39.1325C42.417 38.0139 44.9996 36.0297 44.9996 32.375C44.9996 29.1945 43.6819 26.7572 41.7431 25.1686C39.8914 23.6511 37.5986 23.0026 35.6245 23.0027C33.9192 23.0028 32.1676 23.2826 30.54 24.1521ZM39.3754 53.0004C39.3754 50.9289 37.6965 49.25 35.6253 49.25C33.5541 49.25 31.875 50.9289 31.875 53.0004C31.875 55.0715 33.5541 56.7504 35.6253 56.7504C37.6965 56.7504 39.3754 55.0715 39.3754 53.0004Z" fill="#EF6344"/>
<path d="M35.252 71.7477C40.2702 76.4034 46.9906 79.2496 54.3759 79.2496C58.4997 79.2496 62.423 78.3605 65.9581 76.7611C70.6827 77.8501 75.7887 78.7831 78.1374 79.1971C80.7222 79.6531 82.9662 77.3754 82.4521 74.789C81.9987 72.5071 80.9967 67.6137 79.8635 63.0301C81.5562 59.4117 82.5009 55.3752 82.5009 51.1246C82.5009 38.8137 74.591 28.3503 63.5761 24.5391C66.0777 29.089 67.5009 34.3157 67.5009 39.875C67.5009 57.479 53.2299 71.7496 35.6259 71.7496C35.5011 71.7496 35.3765 71.7492 35.252 71.7477Z" fill="#232426"/>
</svg>
