<svg width="32" height="32" viewBox="0 0 32 32" fill="none" xmlns="http://www.w3.org/2000/svg">
<path d="M21.586 2.66797H10.4127C5.55935 2.66797 2.66602 5.5613 2.66602 10.4146V21.5746C2.66602 26.4413 5.55935 29.3346 10.4127 29.3346H21.5727C26.426 29.3346 29.3193 26.4413 29.3193 21.588V10.4146C29.3327 5.5613 26.4393 2.66797 21.586 2.66797ZM15.9993 21.1746C13.146 21.1746 10.826 18.8546 10.826 16.0013C10.826 13.148 13.146 10.828 15.9993 10.828C18.8527 10.828 21.1727 13.148 21.1727 16.0013C21.1727 18.8546 18.8527 21.1746 15.9993 21.1746ZM23.8927 9.17464C23.826 9.33464 23.7327 9.4813 23.6127 9.61463C23.4793 9.73463 23.3327 9.82797 23.1727 9.89464C23.0127 9.9613 22.8393 10.0013 22.666 10.0013C22.306 10.0013 21.9727 9.86797 21.7193 9.61463C21.5993 9.4813 21.506 9.33464 21.4393 9.17464C21.3727 9.01464 21.3327 8.8413 21.3327 8.66797C21.3327 8.49464 21.3727 8.3213 21.4393 8.1613C21.506 7.98797 21.5993 7.85464 21.7193 7.7213C22.026 7.41464 22.4927 7.26797 22.9193 7.3613C23.0127 7.37464 23.0927 7.4013 23.1727 7.4413C23.2527 7.46797 23.3327 7.50797 23.4127 7.5613C23.4793 7.6013 23.546 7.66797 23.6127 7.7213C23.7327 7.85464 23.826 7.98797 23.8927 8.1613C23.9593 8.3213 23.9993 8.49464 23.9993 8.66797C23.9993 8.8413 23.9593 9.01464 23.8927 9.17464Z" fill="white"/>
</svg>
