<svg width="32" height="32" viewBox="0 0 32 32" fill="none" xmlns="http://www.w3.org/2000/svg">
<path fill-rule="evenodd" clip-rule="evenodd" d="M30 30H24.4V20.2014C24.4 17.5134 23.2142 16.0137 21.0876 16.0137C18.7734 16.0137 17.4 17.5764 17.4 20.2014V30H11.8V11.8H17.4V13.8467C17.4 13.8467 19.157 10.7637 23.1162 10.7637C27.0768 10.7637 30 13.1805 30 18.1813V30ZM5.4188 8.88926C3.5302 8.88926 2 7.34655 2 5.44395C2 3.54275 3.5302 2 5.4188 2C7.306 2 8.83619 3.54275 8.83619 5.44395C8.83759 7.34655 7.306 8.88926 5.4188 8.88926ZM2 30H9V11.8H2V30Z" fill="white"/>
</svg>
