<svg width="32" height="32" viewBox="0 0 32 32" fill="none" xmlns="http://www.w3.org/2000/svg">
<path fill-rule="evenodd" clip-rule="evenodd" d="M10.064 28.7989C22.1392 28.7989 28.744 18.9486 28.744 10.4075C28.744 10.1271 28.744 9.84879 28.7248 9.57155C30.0096 8.65788 31.1184 7.52347 32 6.22545C30.8032 6.74845 29.5312 7.09142 28.2304 7.24264C29.6 6.43453 30.6256 5.16494 31.1168 3.66686C29.8272 4.41984 28.4176 4.95125 26.9472 5.23639C24.4608 2.63404 20.3024 2.50795 17.6576 4.95592C15.9536 6.53434 15.2288 8.88773 15.7584 11.1325C10.48 10.871 5.5616 8.41677 2.2272 4.37936C0.4848 7.33298 1.376 11.1101 4.2608 13.0067C3.216 12.9768 2.1936 12.6998 1.28 12.1989V12.2809C1.2816 15.3574 3.4848 18.0065 6.5472 18.6161C5.5808 18.876 4.5664 18.9137 3.584 18.7262C4.4432 21.3601 6.9088 23.1641 9.7168 23.2161C7.392 25.015 4.52 25.9919 1.5632 25.9887C1.0416 25.9872 0.52 25.9572 0 25.8958C3.0032 27.7924 6.496 28.7989 10.064 28.7942" fill="white"/>
</svg>
