<svg width="32" height="32" viewBox="0 0 32 32" fill="none" xmlns="http://www.w3.org/2000/svg">
<g clip-path="url(#clip0_69_677)">
<path fill-rule="evenodd" clip-rule="evenodd" d="M12.7815 20.1386V11.1597C15.969 12.6595 18.4377 14.1085 21.3575 15.6706C18.9493 17.0061 15.969 18.5046 12.7815 20.1386ZM30.5456 6.69404C29.9958 5.96962 29.0586 5.40572 28.0609 5.21904C25.1284 4.66216 6.83358 4.66057 3.90264 5.21904C3.10257 5.36902 2.39014 5.73155 1.77813 6.29482C-0.80058 8.68826 0.00746589 21.5235 0.629035 23.6026C0.890411 24.5026 1.2283 25.1516 1.65384 25.5776C2.20209 26.1409 2.95275 26.5287 3.81497 26.7026C6.22953 27.2021 18.6689 27.4813 28.0099 26.7776C28.8706 26.6276 29.6324 26.2273 30.2332 25.6401C32.6175 23.2563 32.4549 9.7002 30.5456 6.69404Z" fill="white"/>
</g>
<defs>
<clipPath id="clip0_69_677">
<rect width="32" height="32" fill="white"/>
</clipPath>
</defs>
</svg>
